<svg width="73" height="73" viewBox="0 0 73 73" fill="none" xmlns="http://www.w3.org/2000/svg">
<g id="FindSport-Logo">
<path id="Icon" d="M15.5 43.3591C9.94591 45.8092 6.5 49.2235 6.5 53C6.5 60.4558 19.9315 66.5 36.5 66.5C53.0685 66.5 66.5 60.4558 66.5 53C66.5 49.2235 63.0541 45.8092 57.5 43.3591M30.1204 17.375C28.096 19.2116 26.7462 21.8103 26.7462 24.5C26.7462 26.9809 27.8928 29.3836 29.6575 31.183M30.1204 17.375C31.8838 15.7753 34.159 14.7538 36.5 14.7538C38.841 14.7538 41.1162 15.7753 42.8796 17.375M30.1204 17.375C30.1204 17.375 34.0086 19.625 36.5 19.625C38.9914 19.625 42.8796 17.375 42.8796 17.375M42.8796 17.375C44.904 19.2116 46.2537 21.8103 46.2537 24.5C46.2537 26.9809 45.1072 29.3836 43.3425 31.183M29.6575 31.183C31.4751 33.0365 33.9485 34.25 36.5 34.25C39.0515 34.25 41.5249 33.0365 43.3425 31.183M29.6575 31.183C29.6575 31.183 33.8278 29.1875 36.5 29.1875C39.1722 29.1875 43.3425 31.183 43.3425 31.183M54.5 24.5C54.5 36.6911 41 42.5 36.5 51.5C32 42.5 18.5 36.6911 18.5 24.5C18.5 14.5589 26.5589 6.5 36.5 6.5C46.4411 6.5 54.5 14.5589 54.5 24.5Z" stroke="#01001F" stroke-width="1.6" stroke-linecap="round" stroke-linejoin="round"/>
</g>
</svg>
